<svg xmlns="http://www.w3.org/2000/svg" width="100%" height="100%" viewBox="0 0 1920 400" preserveAspectRatio="none">
  <defs>
    <linearGradient id="skyGradient" x1="0%" y1="0%" x2="0%" y2="100%">
      <stop offset="0%" stop-color="#0f172a" stop-opacity="0.8" />
      <stop offset="100%" stop-color="#1e293b" stop-opacity="0.1" />
    </linearGradient>
    
    <linearGradient id="buildingGradient1" x1="0%" y1="0%" x2="0%" y2="100%">
      <stop offset="0%" stop-color="#6366f1" stop-opacity="0.3" />
      <stop offset="100%" stop-color="#111827" stop-opacity="0.8" />
    </linearGradient>
    
    <linearGradient id="buildingGradient2" x1="0%" y1="0%" x2="0%" y2="100%">
      <stop offset="0%" stop-color="#06b6d4" stop-opacity="0.3" />
      <stop offset="100%" stop-color="#0f172a" stop-opacity="0.8" />
    </linearGradient>
    
    <linearGradient id="buildingGradient3" x1="0%" y1="0%" x2="0%" y2="100%">
      <stop offset="0%" stop-color="#8b5cf6" stop-opacity="0.3" />
      <stop offset="100%" stop-color="#1e1b4b" stop-opacity="0.8" />
    </linearGradient>
    
    <filter id="glow" x="-20%" y="-20%" width="140%" height="140%">
      <feGaussianBlur stdDeviation="2" result="blur" />
      <feComposite in="SourceGraphic" in2="blur" operator="over" />
    </filter>
    
    <pattern id="windows" width="40" height="40" patternUnits="userSpaceOnUse">
      <rect width="4" height="6" fill="#06b6d4" opacity="0.6" rx="1">
        <animate attributeName="opacity" values="0.6;0.9;0.6" dur="5s" repeatCount="indefinite" />
      </rect>
      <rect x="10" y="15" width="4" height="6" fill="#8b5cf6" opacity="0.4" rx="1">
        <animate attributeName="opacity" values="0.4;0.7;0.4" dur="7s" repeatCount="indefinite" />
      </rect>
      <rect x="20" y="5" width="4" height="6" fill="#6366f1" opacity="0.5" rx="1">
        <animate attributeName="opacity" values="0.5;0.8;0.5" dur="6s" repeatCount="indefinite" />
      </rect>
      <rect x="30" y="20" width="4" height="6" fill="#06b6d4" opacity="0.3" rx="1">
        <animate attributeName="opacity" values="0.3;0.6;0.3" dur="8s" repeatCount="indefinite" />
      </rect>
    </pattern>
  </defs>
  
  <!-- Sky background -->
  <rect width="100%" height="100%" fill="url(#skyGradient)" />
  
  <!-- Stars -->
  <g fill="#ffffff" opacity="0.6">
    <circle cx="100" cy="50" r="0.8" />
    <circle cx="300" cy="30" r="0.6" />
    <circle cx="500" cy="70" r="0.7" />
    <circle cx="700" cy="40" r="0.5" />
    <circle cx="900" cy="60" r="0.8" />
    <circle cx="1100" cy="30" r="0.6" />
    <circle cx="1300" cy="50" r="0.7" />
    <circle cx="1500" cy="70" r="0.5" />
    <circle cx="1700" cy="40" r="0.8" />
    <circle cx="1900" cy="60" r="0.6" />
    <circle cx="200" cy="80" r="0.7" />
    <circle cx="400" cy="90" r="0.5" />
    <circle cx="600" cy="100" r="0.8" />
    <circle cx="800" cy="80" r="0.6" />
    <circle cx="1000" cy="90" r="0.7" />
    <circle cx="1200" cy="100" r="0.5" />
    <circle cx="1400" cy="80" r="0.8" />
    <circle cx="1600" cy="90" r="0.6" />
    <circle cx="1800" cy="100" r="0.7" />
  </g>
  
  <!-- Buildings in skyline -->
  <!-- Far buildings -->
  <g transform="translate(0, 100)">
    <rect x="50" y="50" width="80" height="250" fill="url(#buildingGradient1)" />
    <rect x="160" y="100" width="60" height="200" fill="url(#buildingGradient2)" />
    <rect x="250" y="80" width="100" height="220" fill="url(#buildingGradient3)" />
    <rect x="380" y="120" width="70" height="180" fill="url(#buildingGradient1)" />
    <rect x="480" y="70" width="90" height="230" fill="url(#buildingGradient2)" />
    <rect x="600" y="90" width="110" height="210" fill="url(#buildingGradient3)" />
    <rect x="740" y="60" width="80" height="240" fill="url(#buildingGradient1)" />
    <rect x="850" y="110" width="60" height="190" fill="url(#buildingGradient2)" />
    <rect x="940" y="100" width="100" height="200" fill="url(#buildingGradient3)" />
    <rect x="1070" y="80" width="70" height="220" fill="url(#buildingGradient1)" />
    <rect x="1170" y="130" width="90" height="170" fill="url(#buildingGradient2)" />
    <rect x="1290" y="110" width="110" height="190" fill="url(#buildingGradient3)" />
    <rect x="1430" y="90" width="80" height="210" fill="url(#buildingGradient1)" />
    <rect x="1540" y="70" width="60" height="230" fill="url(#buildingGradient2)" />
    <rect x="1630" y="120" width="100" height="180" fill="url(#buildingGradient3)" />
    <rect x="1760" y="100" width="70" height="200" fill="url(#buildingGradient1)" />
    <rect x="1860" y="80" width="90" height="220" fill="url(#buildingGradient2)" />
  </g>
  
  <!-- Mid buildings with windows pattern -->
  <g transform="translate(0, 150)">
    <rect x="120" y="30" width="60" height="220" fill="url(#windows)" opacity="0.7" />
    <rect x="320" y="50" width="80" height="200" fill="url(#windows)" opacity="0.7" />
    <rect x="520" y="20" width="70" height="230" fill="url(#windows)" opacity="0.7" />
    <rect x="720" y="40" width="90" height="210" fill="url(#windows)" opacity="0.7" />
    <rect x="920" y="10" width="60" height="240" fill="url(#windows)" opacity="0.7" />
    <rect x="1120" y="30" width="80" height="220" fill="url(#windows)" opacity="0.7" />
    <rect x="1320" y="50" width="70" height="200" fill="url(#windows)" opacity="0.7" />
    <rect x="1520" y="20" width="90" height="230" fill="url(#windows)" opacity="0.7" />
    <rect x="1720" y="40" width="60" height="210" fill="url(#windows)" opacity="0.7" />
  </g>
  
  <!-- Front buildings with glowing edges -->
  <g transform="translate(0, 200)" filter="url(#glow)">
    <!-- Main tower 1 -->
    <path d="M200,0 L200,200 L260,200 L260,50 L280,30 L280,200 L300,200 L300,0 Z" fill="url(#buildingGradient1)" stroke="#6366f1" stroke-width="1" />
    
    <!-- Main tower 2 -->
    <path d="M650,20 L650,200 L750,200 L750,20 L720,0 L680,0 Z" fill="url(#buildingGradient2)" stroke="#06b6d4" stroke-width="1" />
    
    <!-- Main tower 3 with antenna -->
    <path d="M1100,10 L1100,200 L1180,200 L1180,10 L1160,0 L1120,0 Z" fill="url(#buildingGradient3)" stroke="#8b5cf6" stroke-width="1" />
    <line x1="1140" y1="0" x2="1140" y2="-40" stroke="#8b5cf6" stroke-width="2">
      <animate attributeName="stroke-opacity" values="0.5;1;0.5" dur="3s" repeatCount="indefinite" />
    </line>
    <circle cx="1140" cy="-40" r="3" fill="#8b5cf6">
      <animate attributeName="opacity" values="0.7;1;0.7" dur="2s" repeatCount="indefinite" />
    </circle>
    
    <!-- Main tower 4 -->
    <path d="M1500,30 L1500,200 L1580,200 L1580,30 L1560,10 L1520,10 Z" fill="url(#buildingGradient1)" stroke="#6366f1" stroke-width="1" />
  </g>
</svg>
